<svg width="15" height="15" viewBox="0 0 15 15" fill="none" xmlns="http://www.w3.org/2000/svg">
<path fill-rule="evenodd" clip-rule="evenodd" d="M5.99974 9.50065C5.99974 8.67265 5.32774 8.00065 4.49974 8.00065H1.49975C0.671754 8.00065 -0.000244141 8.67265 -0.000244141 9.50065V13.5006C-0.000244141 14.3286 0.671754 15.0006 1.49975 15.0006H4.49974C5.32774 15.0006 5.99974 14.3286 5.99974 13.5006V9.50065ZM3.32375 0.203674C3.69175 0.0716741 4.08774 0.000671387 4.49974 0.000671387C6.43174 0.000671387 7.99973 1.56867 7.99973 3.50066C7.99973 3.96566 7.90874 4.40866 7.74374 4.81566L13.9137 10.9856C14.5137 11.5846 14.5137 12.5577 13.9137 13.1576C13.3147 13.7566 12.3417 13.7566 11.7417 13.1576L5.45374 6.86866C5.15074 6.95466 4.83074 7.00065 4.49974 7.00065C2.56775 7.00065 0.999753 5.43266 0.999753 3.50066C0.999753 3.08866 1.07076 2.69267 1.20276 2.32467L3.33274 4.45467L5.45374 2.33367L3.32375 0.203674ZM4.99974 12.0006H0.999753V13.0006H4.99974V12.0006ZM4.99974 10.0006H0.999753V11.0006H4.99974V10.0006Z" fill="#A3A3A3"/>
</svg>
