<svg width="10" height="8" viewBox="0 0 10 8" fill="none" xmlns="http://www.w3.org/2000/svg">
<path d="M9.85476 0.462311L9.30683 0.0720617C9.2281 0.0163181 9.12842 -0.00863491 9.02962 0.00266108C8.93082 0.0139571 8.84093 0.0605826 8.77962 0.132339L3.64488 6.16553L1.14172 3.8881C1.0711 3.82353 0.975336 3.78725 0.875479 3.78725C0.775622 3.78725 0.679854 3.82353 0.609234 3.8881L0.110259 4.34586C0.03966 4.41045 0 4.49805 0 4.58938C0 4.68071 0.03966 4.7683 0.110259 4.8329L3.47165 7.8984C3.50942 7.93315 3.55486 7.96012 3.60493 7.97753C3.655 7.99494 3.70856 8.00237 3.76202 7.99934C3.81548 7.99631 3.86763 7.98288 3.91496 7.95995C3.9623 7.93702 4.00375 7.90512 4.03653 7.86637L9.92067 0.945559C9.98197 0.873475 10.0095 0.782075 9.9971 0.691455C9.98475 0.600836 9.93355 0.518414 9.85476 0.462311Z" fill="#A3A3A3"/>
</svg>
