<svg width="12" height="12" viewBox="0 0 12 12" fill="none" xmlns="http://www.w3.org/2000/svg">
<path d="M1 3.05176e-05C0.447716 3.05176e-05 3.89414e-07 0.447746 3.89414e-07 1.00003V5.00003H2V5.50003C2 5.77617 2.22386 6.00003 2.5 6.00003C2.77614 6.00003 3 5.77617 3 5.50003V5.00003H5V3.00003H5.5C5.77614 3.00003 6 2.77617 6 2.50003C6 2.22389 5.77614 2.00003 5.5 2.00003H5V3.05176e-05H1Z" fill="#A3A3A3"/>
<path d="M12 1.00003C12 0.447746 11.5523 3.05176e-05 11 3.05176e-05H7V1.00003C7.55229 1.00003 8 1.44775 8 2.00003V3.00003C8 3.55232 7.55229 4.00003 7 4.00003V5.00003H9V5.50003C9 5.77617 9.22386 6.00003 9.5 6.00003C9.77614 6.00003 10 5.77617 10 5.50003V5.00003H12V1.00003Z" fill="#A3A3A3"/>
<path d="M11 12C11.5523 12 12 11.5523 12 11V7.00003H11C11 7.55232 10.5523 8.00003 10 8.00003H9C8.44772 8.00003 8 7.55232 8 7.00003H7V9.00003H6.5C6.22386 9.00003 6 9.22389 6 9.50003C6 9.77617 6.22386 10 6.5 10H7L7 12H11Z" fill="#A3A3A3"/>
<path d="M0 11C-4.82823e-08 11.5523 0.447715 12 1 12L5 12V11C4.44772 11 4 10.5523 4 10V9.00003C4 8.44774 4.44772 8.00003 5 8.00003V7.00003H4C4 7.55231 3.55228 8.00003 3 8.00003L2 8.00003C1.44772 8.00003 1 7.55231 1 7.00003H3.49691e-07L0 11Z" fill="#A3A3A3"/>
</svg>
